# xmcd
#
# Track frame offsets: 
#        150
#        21532
#        39368
#        64064
#        82637
#        101727
#        138470
#        158252
#        187465
#        210184
#        226105
#
# Disc length: 3272 seconds
#
# Revision: 0
# Processed by: cddbd v1.5.2PL0 Copyright (c) Steve Scherf et al.
# Submitted via: ExactAudioCopy v0.99pb5
#
DISCID=840cc60b
DTITLE=Meantooth Grin - Outnumbered and Ougunned: Meantooth Grin Live
DYEAR=2012
DGENRE=Blues
TTITLE0=Drive
TTITLE1=Tommy Gun
TTITLE2=Before the Devil Knows You're Dead (Part 2)
TTITLE3=Killing Time
TTITLE4=Necessary Evil
TTITLE5=Revelator
TTITLE6=We Only Come Out at Night
TTITLE7=Dark Was the Night
TTITLE8=Octavia
TTITLE9=Black Snake Shake
TTITLE10=Telephone Blues
EXTD=
EXTT0=
EXTT1=
EXTT2=
EXTT3=
EXTT4=
EXTT5=
EXTT6=
EXTT7=
EXTT8=
EXTT9=
EXTT10=
PLAYORDER=
